<mxfile host="app.diagrams.net" agent="Mozilla/5.0 (Windows NT 10.0; Win64; x64) AppleWebKit/537.36 (KHTML, like Gecko) Chrome/133.0.0.0 Safari/537.36 Edg/133.0.0.0" version="26.0.15">
  <diagram name="PÃ¡gina-1" id="mmAkG19vRLk3uk0F1niS">
    <mxGraphModel dx="698" dy="382" grid="1" gridSize="10" guides="1" tooltips="1" connect="1" arrows="1" fold="1" page="1" pageScale="1" pageWidth="827" pageHeight="1169" math="0" shadow="0">
      <root>
        <mxCell id="0" />
        <mxCell id="1" parent="0" />
        <mxCell id="5PwNpG0S_1JVWoB8pSh7-2" value="" style="rounded=0;whiteSpace=wrap;html=1;" vertex="1" parent="1">
          <mxGeometry x="210" y="200" width="580" height="370" as="geometry" />
        </mxCell>
        <mxCell id="5PwNpG0S_1JVWoB8pSh7-3" value="" style="rounded=0;whiteSpace=wrap;html=1;" vertex="1" parent="1">
          <mxGeometry x="440" y="230" width="120" height="60" as="geometry" />
        </mxCell>
        <mxCell id="5PwNpG0S_1JVWoB8pSh7-4" value="" style="shape=crossbar;whiteSpace=wrap;html=1;rounded=1;" vertex="1" parent="1">
          <mxGeometry x="440" y="170" width="120" height="20" as="geometry" />
        </mxCell>
        <mxCell id="5PwNpG0S_1JVWoB8pSh7-5" value="" style="shape=crossbar;whiteSpace=wrap;html=1;rounded=1;" vertex="1" parent="1">
          <mxGeometry x="210" y="180" width="230" height="20" as="geometry" />
        </mxCell>
        <mxCell id="5PwNpG0S_1JVWoB8pSh7-6" value="" style="shape=crossbar;whiteSpace=wrap;html=1;rounded=1;" vertex="1" parent="1">
          <mxGeometry x="560" y="180" width="230" height="20" as="geometry" />
        </mxCell>
        <mxCell id="5PwNpG0S_1JVWoB8pSh7-7" value="WIDTH" style="text;strokeColor=none;fillColor=none;html=1;fontSize=13;fontStyle=1;verticalAlign=middle;align=center;" vertex="1" parent="1">
          <mxGeometry x="445" y="100" width="110" height="30" as="geometry" />
        </mxCell>
        <mxCell id="5PwNpG0S_1JVWoB8pSh7-8" value="" style="shape=crossbar;whiteSpace=wrap;html=1;rounded=1;" vertex="1" parent="1">
          <mxGeometry x="210" y="120" width="580" height="20" as="geometry" />
        </mxCell>
        <mxCell id="5PwNpG0S_1JVWoB8pSh7-10" value="[WIDTH-OBJECT_WIDTH]/2" style="text;strokeColor=none;fillColor=none;html=1;fontSize=13;fontStyle=1;verticalAlign=middle;align=center;" vertex="1" parent="1">
          <mxGeometry x="270" y="160" width="110" height="30" as="geometry" />
        </mxCell>
        <mxCell id="5PwNpG0S_1JVWoB8pSh7-11" value="OBJECT_WIDTH" style="text;strokeColor=none;fillColor=none;html=1;fontSize=13;fontStyle=1;verticalAlign=middle;align=center;" vertex="1" parent="1">
          <mxGeometry x="445" y="140" width="110" height="30" as="geometry" />
        </mxCell>
      </root>
    </mxGraphModel>
  </diagram>
</mxfile>
